<svg width="15" height="15" viewBox="0 0 15 15" fill="none" xmlns="http://www.w3.org/2000/svg">
<path d="M11.0417 0.750153L3.125 13.4168M0.75 0.750153L3.91667 7.08349L7.08333 0.750153M13.4167 8.27099V7.87515C13.4167 7.66519 13.3333 7.46383 13.1848 7.31536C13.0363 7.16689 12.835 7.08349 12.625 7.08349H10.25C10.04 7.08349 9.83867 7.16689 9.69021 7.31536C9.54174 7.46383 9.45833 7.66519 9.45833 7.87515V9.45849C9.45833 9.66845 9.54174 9.86981 9.69021 10.0183C9.83867 10.1667 10.04 10.2502 10.25 10.2502H12.625C12.835 10.2502 13.0363 10.3336 13.1848 10.482C13.3333 10.6305 13.4167 10.8319 13.4167 11.0418V12.6252C13.4167 12.8351 13.3333 13.0365 13.1848 13.1849C13.0363 13.3334 12.835 13.4168 12.625 13.4168H10.25C10.04 13.4168 9.83867 13.3334 9.69021 13.1849C9.54174 13.0365 9.45833 12.8351 9.45833 12.6252V12.2293" stroke="#F84B07" stroke-width="1.5" stroke-linecap="round" stroke-linejoin="round"/>
</svg>
